# xmcd CD database file
# Copyright (C) 1993-1998 Ti Kan
# 
# Track frame offsets:
#     183
#     13740
#     30378
#     48485
#     65933
#     79818
#     95155
#     109848
#     124610
#     138818
#     158335
#     184715
#     199303
#     212570
#     227783
#     249120
#     265678
#     287695
#     313388
# 
# Disc length: 4387 seconds
# 
# Revision: 1
# Processed by: cddbd v1.4b41PL1 Copyright (c) Steve Scherf et al.
# Submitted via: DiscPlay 4.0.4
# 
DISCID=0a112113
DTITLE=Champion Jack Dupree - New Orleans Barrelhouse
DYEAR=1900
DGENRE=
TTITLE0=Gravier Street Blues (Talking About Drive 'Em Down)
TTITLE1=Workhouse Blues (Talking About Drive 'Em Down)
TTITLE2=Louise Blues
TTITLE3=Doctor Special
TTITLE4=My Cabin Inn
TTITLE5=Slippin' In After Midnight
TTITLE6=By My Mother's Bedside
TTITLE7=Mean Old Frisco
TTITLE8=Daybreak Blues
TTITLE9=Nagging Woman Blues
TTITLE10=London Special
TTITLE11=ICI Mo-Mo
TTITLE12=Come Back Baby
TTITLE13=Tee-Na-Na
TTITLE14=Sometimes I Feel Troubled
TTITLE15=Number Nine Blues
TTITLE16=Wig-Headed Woman
TTITLE17=Pearl Harbour Blues
TTITLE18=Low Down Dog
EXTD=
EXTT0=
EXTT1=
EXTT2=
EXTT3=
EXTT4=
EXTT5=
EXTT6=
EXTT7=
EXTT8=
EXTT9=
EXTT10=
EXTT11=
EXTT12=
EXTT13=
EXTT14=
EXTT15=
EXTT16=
EXTT17=
EXTT18=
PLAYORDER=
